<svg width="1380" height="252" viewBox="0 0 1380 252" version="1.1" xmlns="http://www.w3.org/2000/svg" xmlns:xlink="http://www.w3.org/1999/xlink">
<title>logo</title>
<desc>Created using Figma</desc>
<g id="Canvas" transform="matrix(4 0 0 4 -4888 -5856)">
<g id="logo">
<g id="H&#38;K INTERNATIONAL">
<use xlink:href="#path0_fill" transform="translate(1272.5 1476.93)" fill="#CCDAE4"/>
</g>
<g id="Group">
<g id="Vector">
<use xlink:href="#path1_fill" transform="translate(1244.06 1467.36)" fill="#FFD520"/>
</g>
<g id="Vector">
<use xlink:href="#path2_fill" transform="translate(1234.3 1464.19)" fill="#FFD520"/>
</g>
<g id="Vector">
<use xlink:href="#path3_fill" transform="translate(1232.66 1470.87)" fill="#FFD520"/>
</g>
<g id="Vector">
<use xlink:href="#path4_fill" transform="translate(1222.45 1467.14)" fill="#FFD520"/>
</g>
<g id="Vector">
<use xlink:href="#path5_fill" transform="translate(1243.28 1471.21)" fill="#658AB2"/>
</g>
<g id="Vector">
<use xlink:href="#path6_fill" transform="translate(1222.03 1470.84)" fill="#004677"/>
</g>
</g>
</g>
</g>
<defs>
<path id="path0_fill" d="M 19.5044 28L 14.3747 28L 14.3747 19.0636L 6.77582 19.0636L 6.77582 28L 1.61679 28L 1.61679 6.59957L 6.77582 6.59957L 6.77582 15.0951L 14.3747 15.0951L 14.3747 6.59957L 19.5044 6.59957L 19.5044 28ZM 25.7364 16.7266C 25.1582 15.9035 24.7026 15.1196 24.3694 14.3749C 24.0461 13.6302 23.8844 12.861 23.8844 12.0673C 23.8844 10.3427 24.4429 8.95127 25.56 7.89301C 26.677 6.82494 28.1371 6.29091 29.94 6.29091C 31.5568 6.29091 32.8943 6.78575 33.9526 7.77542C 35.0109 8.75529 35.54 9.97524 35.54 11.4352C 35.54 13.2578 34.5356 14.8746 32.5269 16.2856L 31.4098 17.0646L 34.7022 20.842C 35.2411 19.7642 35.5106 18.5834 35.5106 17.2998L 39.6702 17.2998C 39.6702 20.1904 39.0038 22.5078 37.6712 24.252L 40.9342 28L 35.4077 28L 34.4082 26.8682C 33.5851 27.3582 32.7425 27.7207 31.8802 27.9559C 31.0277 28.1911 30.0625 28.3087 28.9846 28.3087C 26.8681 28.3087 25.1729 27.755 23.8991 26.6478C 22.6253 25.5307 21.9883 24.0658 21.9883 22.253C 21.9883 21.2634 22.2382 20.3668 22.738 19.5633C 23.2475 18.7598 24.2323 17.824 25.6923 16.756L 25.7364 16.7266ZM 29.308 24.4872C 30.1703 24.4872 30.9934 24.2863 31.7773 23.8845L 27.9264 19.5045L 27.7941 19.5927C 27.2356 20.2786 26.9563 21.0527 26.9563 21.915C 26.9563 22.6303 27.1817 23.2378 27.6324 23.7376C 28.0832 24.2373 28.6417 24.4872 29.308 24.4872ZM 28.1615 12.0085C 28.1615 12.6944 28.5339 13.5273 29.2786 14.5071L 30.2634 13.8898C 30.7141 13.5959 31.0424 13.2921 31.2481 12.9785C 31.4539 12.665 31.5568 12.2681 31.5568 11.788C 31.5568 11.3373 31.4 10.9453 31.0865 10.6122C 30.7729 10.279 30.3859 10.1124 29.9253 10.1124C 29.3766 10.1124 28.9454 10.2888 28.6319 10.6416C 28.3183 10.9845 28.1615 11.4401 28.1615 12.0085ZM 50.341 20.0336L 48.2244 22.3559L 48.2244 28L 43.0654 28L 43.0654 6.59957L 48.2244 6.59957L 48.2244 16.0358L 50.0176 13.3166L 54.6328 6.59957L 61.0118 6.59957L 53.7803 16.0651L 61.0118 28L 54.8974 28L 50.341 20.0336ZM 73.7109 28L 70.8889 28L 70.8889 6.59957L 73.7109 6.59957L 73.7109 28ZM 95.3318 28L 92.4951 28L 81.7214 11.5087L 81.7214 28L 78.8847 28L 78.8847 6.59957L 81.7214 6.59957L 92.5245 23.1643L 92.5245 6.59957L 95.3318 6.59957L 95.3318 28ZM 114.689 8.92187L 107.811 8.92187L 107.811 28L 105.003 28L 105.003 8.92187L 98.1392 8.92187L 98.1392 6.59957L 114.689 6.59957L 114.689 8.92187ZM 129.961 18.1082L 120.686 18.1082L 120.686 25.6924L 131.46 25.6924L 131.46 28L 117.864 28L 117.864 6.59957L 131.313 6.59957L 131.313 8.92187L 120.686 8.92187L 120.686 15.8006L 129.961 15.8006L 129.961 18.1082ZM 142.821 19.3428L 137.795 19.3428L 137.795 28L 134.958 28L 134.958 6.59957L 142.042 6.59957C 144.453 6.59957 146.305 7.1483 147.598 8.24576C 148.902 9.34322 149.553 10.9404 149.553 13.0373C 149.553 14.37 149.191 15.5311 148.465 16.5208C 147.75 17.5105 146.751 18.2503 145.467 18.7402L 150.494 27.8236L 150.494 28L 147.466 28L 142.821 19.3428ZM 137.795 17.0352L 142.131 17.0352C 143.532 17.0352 144.644 16.6727 145.467 15.9476C 146.3 15.2225 146.716 14.2524 146.716 13.0373C 146.716 11.7145 146.32 10.7003 145.526 9.99483C 144.742 9.28933 143.605 8.93167 142.116 8.92187L 137.795 8.92187L 137.795 17.0352ZM 169.969 28L 167.132 28L 156.358 11.5087L 156.358 28L 153.522 28L 153.522 6.59957L 156.358 6.59957L 167.161 23.1643L 167.161 6.59957L 169.969 6.59957L 169.969 28ZM 187.063 22.4147L 178.097 22.4147L 176.083 28L 173.173 28L 181.345 6.59957L 183.814 6.59957L 192.001 28L 189.106 28L 187.063 22.4147ZM 178.949 20.0924L 186.225 20.0924L 182.58 10.083L 178.949 20.0924ZM 207.758 8.92187L 200.879 8.92187L 200.879 28L 198.072 28L 198.072 8.92187L 191.208 8.92187L 191.208 6.59957L 207.758 6.59957L 207.758 8.92187ZM 213.96 28L 211.138 28L 211.138 6.59957L 213.96 6.59957L 213.96 28ZM 235.596 17.9906C 235.596 20.0875 235.243 21.9199 234.537 23.4877C 233.832 25.0457 232.833 26.2362 231.539 27.0593C 230.246 27.8824 228.737 28.294 227.012 28.294C 225.327 28.294 223.832 27.8824 222.529 27.0593C 221.226 26.2264 220.212 25.0457 219.487 23.5171C 218.771 21.9787 218.404 20.2002 218.384 18.1817L 218.384 16.6384C 218.384 14.5806 218.742 12.763 219.457 11.1854C 220.173 9.60778 221.182 8.40254 222.485 7.56965C 223.798 6.72696 225.297 6.30561 226.983 6.30561C 228.697 6.30561 230.206 6.72206 231.51 7.55495C 232.823 8.37804 233.832 9.57839 234.537 11.156C 235.243 12.7238 235.596 14.5512 235.596 16.6384L 235.596 17.9906ZM 232.788 16.609C 232.788 14.0711 232.279 12.1261 231.26 10.7738C 230.241 9.41181 228.815 8.7308 226.983 8.7308C 225.199 8.7308 223.793 9.41181 222.764 10.7738C 221.745 12.1261 221.221 14.0074 221.192 16.4179L 221.192 17.9906C 221.192 20.4501 221.706 22.3853 222.735 23.7963C 223.774 25.1976 225.199 25.8982 227.012 25.8982C 228.835 25.8982 230.246 25.2368 231.245 23.9139C 232.245 22.5813 232.759 20.6754 232.788 18.1964L 232.788 16.609ZM 256.276 28L 253.439 28L 242.666 11.5087L 242.666 28L 239.829 28L 239.829 6.59957L 242.666 6.59957L 253.469 23.1643L 253.469 6.59957L 256.276 6.59957L 256.276 28ZM 273.37 22.4147L 264.404 22.4147L 262.39 28L 259.48 28L 267.652 6.59957L 270.122 6.59957L 278.308 28L 275.413 28L 273.37 22.4147ZM 265.257 20.0924L 272.532 20.0924L 268.887 10.083L 265.257 20.0924ZM 284.026 25.6924L 294.168 25.6924L 294.168 28L 281.189 28L 281.189 6.59957L 284.026 6.59957L 284.026 25.6924Z"/>
<path id="path1_fill" d="M 9.50094 6.63127L -7.88968e-07 3.06357L 9.28119 0L 18.6529 3.07649L 9.50094 6.63127Z"/>
<path id="path2_fill" d="M 1.97242e-07 2.55944L 8.33756 5.70056L 17.6446 2.71455L 9.34582 0L 1.97242e-07 2.55944Z"/>
<path id="path3_fill" d="M 19.5965 3.63233L 9.97921 7.381L -3.94484e-07 3.30917L 10.0438 9.86209e-08L 19.5965 3.63233Z"/>
<path id="path4_fill" d="M 10.4446 -9.86209e-08L 18.8209 3.19283L 8.62194 6.46322L 6.16381e-09 2.86967L 10.4446 -9.86209e-08Z"/>
<path id="path5_fill" d="M 11.065 47.0393L 11.065 30.8296L 9.64313 31.5793L 9.64313 48.0347L -7.88968e-07 54.834L 0.0387789 7.91098L 9.64313 4.11061L 9.64313 19.0407L 11.065 18.2909L 11.065 3.54185L 20.036 -9.86209e-08L 16.7139 22.2981L 20.6823 40.2659L 11.065 47.0393Z"/>
<path id="path6_fill" d="M 19.7775 54.9503L 9.8241 48.319L 9.8241 32.5746L 8.14366 31.5405L 8.14366 47.2074L 0 41.83L 0 1.97242e-07L 8.14366 3.43843L 8.14366 17.9031L 9.8241 18.808L 9.8241 4.14939L 19.7775 8.35048L 19.7775 54.9503Z"/>
</defs>
</svg>
